<?xml version="1.0" encoding="UTF-8"?>
<svg width="45px" height="39px" viewBox="0 0 45 39" version="1.1" xmlns="http://www.w3.org/2000/svg" xmlns:xlink="http://www.w3.org/1999/xlink">
    <!-- Generator: sketchtool 63.1 (101010) - https://sketch.com -->
    <title>A19AE571-B52F-460E-802A-3ECE838C1510</title>
    <desc>Created with sketchtool.</desc>
    <g id="Lets-Beat-COVID19" stroke="none" stroke-width="1" fill="none" fill-rule="evenodd">
        <g id="01-HOME" transform="translate(-91.000000, -1179.000000)">
            <g id="Footer" transform="translate(-1.000000, 1098.000000)">
                <g id="Group">
                    <g transform="translate(93.000000, 58.000000)">
                        <g id="MedShr-logo" transform="translate(0.000000, 24.000000)">
                            <path d="M31.4604631,0.07999992 L11.6998302,0.07999992 C11.1347505,0.07999992 10.4397534,0.470726769 10.156879,0.950807049 L0.276649747,17.715929 C0.136635841,17.9535537 0.07999992,18.2692314 0.07999992,18.5799999 C0.07999992,18.8907685 0.136635841,19.2064462 0.276686148,19.4441325 L10.1568461,36.2094396 C10.4397534,36.6895757 11.134783,37.0799999 11.6998302,37.0799999 L31.4604631,37.0799999 C32.0255103,37.0799999 32.72054,36.6895757 33.0034143,36.2094954 L42.8833407,19.4440867 C43.023364,19.2064462 43.0799999,18.8907685 43.0799999,18.5799999 C43.0799999,18.2692314 43.023364,17.9535537 42.8833137,17.7158673 L33.0034449,0.95085892 C32.72054,0.470726769 32.0255428,0.07999992 31.4604631,0.07999992 Z" id="Path" stroke="#1B6EBF" stroke-width="1.84"></path>
                            <path d="M13.2177245,28.0799999 C13.8416051,28.0799999 14.3533381,27.6237853 14.3533381,27.0333897 L14.3533381,13.0249152 L20.5874626,21.827175 C20.8426865,22.1760451 21.1546268,22.3638982 21.5516417,22.3638982 C21.9486567,22.3638982 22.2322388,22.1760451 22.4874626,21.827175 L28.8045508,12.9983424 L28.8045508,27.0062269 C28.8045508,27.5697862 29.3183947,28.0799999 29.9422754,28.0799999 C30.5377978,28.0799999 31.0799999,27.5969491 31.0799999,27.0065536 L31.0799999,10.1266101 C31.0799999,9.56305077 30.5695521,9.07999992 29.9740297,9.07999992 L29.7188058,9.07999992 C29.2650745,9.07999992 28.8964178,9.29468918 28.6695521,9.64355924 L21.5799999,19.7339547 L14.4904477,9.64355924 C14.2635821,9.32152534 13.9232835,9.07999992 13.4411939,9.07999992 L13.1859701,9.07999992 C12.5904477,9.07999992 12.0799999,9.56305077 12.0799999,10.1266101 L12.0799999,27.0333897 C12.0799999,27.6237853 12.6222021,28.0799999 13.2177245,28.0799999 Z" id="path-3" fill="#1B6EBF" fill-rule="nonzero"></path>
                        </g>
                    </g>
                </g>
            </g>
        </g>
    </g>
</svg>